<?xml version="1.0" encoding="utf-8"?>
<!-- Generator: Adobe Illustrator 14.0.0, SVG Export Plug-In . SVG Version: 6.00 Build 43363)  -->
<!DOCTYPE svg PUBLIC "-//W3C//DTD SVG 1.1//EN" "http://www.w3.org/Graphics/SVG/1.1/DTD/svg11.dtd">
<svg version="1.1" id="Layer_1" xmlns="http://www.w3.org/2000/svg" xmlns:xlink="http://www.w3.org/1999/xlink" x="0px" y="0px"
	 width="612px" height="792px" viewBox="0 0 612 792" enable-background="new 0 0 612 792" xml:space="preserve">
<g>
	<polygon fill-rule="evenodd" clip-rule="evenodd" fill="#FFFFFF" points="209,300 401.756,300 401.756,492.756 209,492.756 
		209,300 	"/>
	<path fill-rule="evenodd" clip-rule="evenodd" fill="#007DAB" d="M308.263,372.433c-0.418-0.349-0.906-0.697-1.395-0.836
		l-0.836,16.384l4.043-11.294C310.494,374.942,309.518,373.479,308.263,372.433L308.263,372.433z M303.94,370.411
		c2.928,0.07,4.044-2.022,4.114-4.044c0.14-3.067-1.813-4.323-4.114-4.323c-2.301,0-4.114,1.325-4.044,4.323
		C299.966,368.04,300.663,370.341,303.94,370.411L303.94,370.411z M295.294,369.435c0.209-5.02-7.53-4.811-7.251,0
		C287.765,374.455,295.782,374.524,295.294,369.435L295.294,369.435z M319.07,372.014c0.139-4.95-7.252-5.02-7.112,0
		C311.889,376.616,319.279,376.825,319.07,372.014L319.07,372.014L319.07,372.014z M319.07,372.014L319.07,372.014L319.07,372.014
		L319.07,372.014z M321.929,396.417v-3.277c-2.72,1.186-5.09,2.162-7.67,3.277H321.929L321.929,396.417z M285.115,396.417h8.366
		l-8.366-3.556V396.417L285.115,396.417z M321.929,392.374v-3.417c-2.649,1.744-5.438,3.486-7.879,5.229L321.929,392.374
		L321.929,392.374z M285.115,392.164c2.858,0.627,5.996,1.395,8.576,1.952l-8.576-5.647V392.164L285.115,392.164z M321.929,388.12
		v-4.462l-8.925,8.716C316.071,390.979,318.86,389.584,321.929,388.12L321.929,388.12z M285.185,387.841l9.413,4.323
		c-3.138-3.137-6.275-6.135-9.413-9.204V387.841L285.185,387.841z M321.37,379.823c-0.209-0.418-0.487-0.836-0.836-1.185
		l-8.925,12.131c3.556-2.649,6.973-5.299,10.319-8.018C321.998,381.706,321.858,380.66,321.37,379.823L321.37,379.823z
		 M285.115,382.194c3.625,2.789,7.251,5.647,10.876,8.436l-9.761-13.805C285.324,378.359,285.045,380.172,285.115,382.194
		L285.115,382.194z M315.653,376.337l-5.856,13.107l10.318-11.225C318.931,376.965,317.396,376.407,315.653,376.337L315.653,376.337
		z M309.797,379.823l-1.813,8.855c2.37-4.114,4.74-8.158,7.041-12.341C312.795,376.546,310.563,377.383,309.797,379.823
		L309.797,379.823z M286.579,376.337l11.086,12.898l-6.833-15.2C289.019,374.106,287.485,375.013,286.579,376.337L286.579,376.337z
		 M291.39,373.967c2.719,4.741,5.508,9.9,8.157,14.432c-0.906-3.974-1.882-10.598-3.277-12.48
		C294.667,373.688,291.39,373.967,291.39,373.967L291.39,373.967z M299.617,372.433c-1.325,1.046-2.231,2.51-1.882,4.183
		l4.044,11.295l-0.767-16.315C300.523,371.735,299.966,372.084,299.617,372.433L299.617,372.433z M301.569,371.457l2.371,16.315
		l2.371-16.315C304.916,370.968,303.104,370.899,301.569,371.457L301.569,371.457z"/>
	<path fill-rule="evenodd" clip-rule="evenodd" fill="#007DAB" d="M240.015,422.367h2.24v-12.953h-2.24V422.367L240.015,422.367z
		 M252.188,418.666c0-1.852-1.168-3.02-3.408-3.896c-1.753-0.584-2.629-1.07-2.629-2.143c0-0.777,0.779-1.654,2.435-1.654
		c1.071,0,2.24,0.389,2.727,0.682v-1.852c-0.486-0.291-1.655-0.584-2.727-0.584c-2.824,0-4.674,1.559-4.674,3.604
		c0,1.947,1.46,3.02,3.603,3.799c1.656,0.584,2.435,1.168,2.435,2.24c0,1.07-0.974,1.85-2.532,1.85
		c-1.168,0-2.727-0.391-3.506-0.975v2.047c0.682,0.389,2.045,0.777,3.408,0.777C250.63,422.561,252.188,420.711,252.188,418.666
		L252.188,418.666z M264.946,416.912h1.168c0.974,1.559,3.214,5.455,3.214,5.455h2.63l-3.506-5.648
		c0.779-0.195,1.363-0.488,1.753-0.877c0.682-0.584,1.266-1.559,1.266-2.727c0-1.266-0.487-2.143-1.266-2.727
		c-0.779-0.682-1.851-0.975-3.701-0.975h-3.798v5.453l0,0v5.648h-6.915v-3.701h3.993v-1.85h-3.993v-3.701c0.584,0,4.967,0,4.967,0
		v-1.85c-1.364,0-7.109,0-7.109,0v12.953h11.297V416.912L264.946,416.912z M264.946,414.867v-3.604h1.948
		c1.656,0,2.337,0.684,2.337,1.852c0,1.266-0.682,1.85-2.337,1.85h-1.948V414.867L264.946,414.867z M235.73,418.666l1.266,3.701
		h2.337l-4.48-12.953h-2.824l-3.798,11.004l-3.701-4.674l4.967-6.33h-2.629l-4.577,6.135v-6.135h-2.24v12.953h2.24v-6.33l4.771,6.33
		h0.487l0,0h2.142l1.266-3.701H235.73L235.73,418.666z M233.295,411.459L233.295,411.459l1.851,5.355h-3.604L233.295,411.459
		L233.295,411.459z"/>
	<path fill-rule="evenodd" clip-rule="evenodd" fill="#007DAB" d="M316.195,418.762l-2.24-9.445h-3.992v13.049
		c1.168,0,2.239,0,2.239,0v-11.102l2.824,11.102c0,0,0.975,0,2.337,0l2.824-11.102v11.102h2.144v-13.049h-3.799L316.195,418.762
		L316.195,418.762z M389.401,418.914c0-1.631,1.255-2.885,2.885-2.885c1.631,0,2.886,1.254,2.886,2.885s-1.255,2.885-2.886,2.885
		C390.656,421.799,389.401,420.545,389.401,418.914L389.401,418.914z M392.286,422.426c1.883,0,3.513-1.504,3.513-3.512
		c0-2.006-1.63-3.512-3.513-3.512c-1.882,0-3.512,1.506-3.512,3.512C388.774,420.922,390.404,422.426,392.286,422.426
		L392.286,422.426z M391.534,419.166h0.752l1.004,1.756h0.753l-1.255-1.756c0.628-0.127,1.129-0.377,1.129-1.131
		c0-0.752-0.501-1.127-1.505-1.127h-1.506v4.014h0.628V419.166L391.534,419.166z M391.534,418.664v-1.256h0.878
		c0.376,0,0.878,0.127,0.878,0.627c0,0.629-0.502,0.629-1.004,0.629H391.534L391.534,418.664z M287.466,410.289
		c-0.779-0.682-1.85-0.973-3.701-0.973h-3.798v13.049h2.24v-5.355h1.558c1.851,0,2.921-0.293,3.701-0.975
		c0.682-0.682,1.266-1.656,1.266-2.922C288.732,411.945,288.246,410.971,287.466,410.289L287.466,410.289z M284.058,415.063h-1.85
		v-3.799h1.85c1.753,0,2.435,0.779,2.435,1.85C286.493,414.283,285.713,415.063,284.058,415.063L284.058,415.063z M306.749,415.84
		c0.682-0.682,1.266-1.557,1.266-2.822c0-1.17-0.584-2.143-1.266-2.729c-0.779-0.682-1.851-0.973-3.798-0.973h-3.701v5.551l0,0
		v5.551h-6.915v-3.604h3.993v-1.947h-3.993v-3.604c0.487,0,4.87,0,4.87,0v-1.947c-1.266,0-7.109,0-7.109,0v13.049h11.394v-5.551
		h1.071c1.071,1.656,3.312,5.551,3.312,5.551h2.629l-3.506-5.746C305.775,416.523,306.262,416.23,306.749,415.84L306.749,415.84z
		 M301.49,414.965v-3.701h1.85c1.753,0,2.435,0.682,2.435,1.754c0,1.266-0.682,1.947-2.435,1.947H301.49L301.49,414.965z
		 M366.544,409.316L366.544,409.316h-0.39v10.127l-5.162-10.127h-3.019v11.102h-6.817v-3.604h3.993v-1.947h-3.993v-3.604
		c0.487,0,4.87,0,4.87,0v-1.947c-1.267,0-7.109,0-7.109,0v13.049h11.005l0,0c0.097,0,0.194,0,0.194,0v-9.934l5.161,9.934h3.02
		v-11.102c1.363,0,2.824,0,3.992,0v11.102h2.24v-11.102h3.896l-0.098-1.947H366.544L366.544,409.316z M387.092,420.418h-5.356
		v-3.604h3.896v-1.947h-3.896v-3.604c0.487,0,4.87,0,4.87,0v-1.947c-1.364,0-7.109,0-7.109,0v13.049h7.596V420.418L387.092,420.418z
		 M344.438,419.348l-5.162-10.031h-3.019v13.049c1.071,0,2.143,0,2.143,0v-9.836l5.161,9.836h3.019v-13.049h-2.142V419.348
		L344.438,419.348z M327.979,409.316l-4.479,13.049h2.24l1.169-3.797h4.771l1.266,3.797h2.338l-4.48-13.049H327.979L327.979,409.316
		z M327.492,416.814l1.753-5.453l0,0l1.85,5.453H327.492L327.492,416.814z"/>
</g>
</svg>
